<svg xmlns="http://www.w3.org/2000/svg" width="15" height="16" viewBox="0 0 15 16"><defs><style>.a{stroke:#000;}</style></defs><g transform="translate(0.713 0.254)"><path class="a" d="M16,20a4,4,0,1,0-4-4A4.006,4.006,0,0,0,16,20Zm0-7.387A3.386,3.386,0,1,1,12.616,16,3.39,3.39,0,0,1,16,12.616Z" transform="translate(-9.068 -8.468)"/><rect class="a" height="3" transform="translate(6.787 0.246)"/><rect class="a" height="3" transform="translate(6.787 12.246)"/><rect class="a" width="2" transform="translate(11.787 7.246)"/><rect class="a" width="2" transform="translate(-0.213 7.246)"/><rect class="a" width="2.154" height="0.616" transform="translate(10.415 3.617) rotate(-45)"/><rect class="a" width="2.154" height="0.616" transform="translate(1.492 12.54) rotate(-45)"/><rect class="a" width="0.616" height="2.154" transform="translate(10.415 11.451) rotate(-45)"/><rect class="a" width="0.616" height="2.154" transform="translate(1.492 2.528) rotate(-45)"/></g></svg>