<svg xmlns="http://www.w3.org/2000/svg" width="14.99" height="11.784" viewBox="0 0 14.99 11.784"><path d="M15.907,12l.021-.021c0-.021.021-.021.021-.042a.02.02,0,0,1,.021-.021.073.073,0,0,1,.021-.042v-.208c0-.021,0-.042-.021-.042,0-.021,0-.021-.021-.021,0-.021-.021-.021-.021-.042l-.021-.021a.02.02,0,0,0-.021-.021L13.45,8.646a.443.443,0,0,0-.312-.146H3.852a.443.443,0,0,0-.312.146L1.1,11.456a.02.02,0,0,1-.021.021l-.021.021c0,.021-.021.021-.021.042a.02.02,0,0,1-.021.021A.073.073,0,0,1,1,11.6v.208c0,.021,0,.042.021.042,0,.021,0,.021.021.021,0,.021.021.021.021.042l.021.021a.02.02,0,0,0,.021.021l7.079,8.2h0l.042.042.021.021h.021a.073.073,0,0,0,.042.021.02.02,0,0,1,.021.021c.021,0,.021,0,.042.021h.25c.021,0,.021,0,.042-.021a.02.02,0,0,0,.021-.021c.021,0,.021-.021.042-.021h.021l.021-.021.042-.042h0l7.079-8.2C15.886,12,15.907,12,15.907,12Zm-11.18.146,2.332,5.5-4.726-5.5Zm4.185,0h2.457L8.911,17.911Zm-.833,5.767L5.622,12.143H8.079Zm4.185-5.767h2.394L9.932,17.661Zm2.394-.833H12.263L11.41,9.333h1.541Zm-3.29,0H8.911V9.333h1.6ZM8.079,9.333v1.978H5.622l.854-1.978Zm-4.039,0H5.58l-.854,1.978H2.332Z" transform="translate(-1 -8.5)"/></svg>